<svg id="visual" viewBox="0 0 1280 400" width="1280" height="400" xmlns="http://www.w3.org/2000/svg" xmlns:xlink="http://www.w3.org/1999/xlink" version="1.1"><path d="M0 45L98 41L197 41L295 45L394 33L492 69L591 37L689 45L788 49L886 29L985 65L1083 61L1182 57L1280 25L1280 0L1182 0L1083 0L985 0L886 0L788 0L689 0L591 0L492 0L394 0L295 0L197 0L98 0L0 0Z" fill="#038373"></path><path d="M0 205L98 141L197 193L295 165L394 161L492 149L591 169L689 213L788 113L886 185L985 145L1083 121L1182 185L1280 197L1280 23L1182 55L1083 59L985 63L886 27L788 47L689 43L591 35L492 67L394 31L295 43L197 39L98 39L0 43Z" fill="#00957c"></path><path d="M0 241L98 185L197 233L295 237L394 209L492 221L591 253L689 241L788 181L886 257L985 209L1083 169L1182 233L1280 233L1280 195L1182 183L1083 119L985 143L886 183L788 111L689 211L591 167L492 147L394 159L295 163L197 191L98 139L0 203Z" fill="#00a784"></path><path d="M0 321L98 341L197 309L295 349L394 353L492 349L591 301L689 333L788 301L886 357L985 325L1083 305L1182 309L1280 313L1280 231L1182 231L1083 167L985 207L886 255L788 179L689 239L591 251L492 219L394 207L295 235L197 231L98 183L0 239Z" fill="#00b98a"></path><path d="M0 401L98 401L197 401L295 401L394 401L492 401L591 401L689 401L788 401L886 401L985 401L1083 401L1182 401L1280 401L1280 311L1182 307L1083 303L985 323L886 355L788 299L689 331L591 299L492 347L394 351L295 347L197 307L98 339L0 319Z" fill="#00cc8e"></path></svg>